<?xml version="1.0" standalone="no"?>
<!DOCTYPE svg PUBLIC "-//W3C//DTD SVG 1.1//EN" "http://www.w3.org/Graphics/SVG/1.1/DTD/svg11.dtd" >
<svg xmlns="http://www.w3.org/2000/svg" height="40px" width="40px" viewBox="0 0 1000 1000">
  <path transform="scale(1,-1) translate(0,-1000)" fill="#00112C" stroke="#00112C" d=" M100 875C100 861.1928812542302 111.1928812542302 850 125 850C138.8071187457698 850 150 861.1928812542302 150 875C150 888.8071187457698 138.8071187457698 900 125 900C111.1928812542302 900 100 888.8071187457698 100 875z M200 875C200 861.1928812542302 211.1928812542302 850 225 850C238.8071187457699 850 250 861.1928812542302 250 875C250 888.8071187457698 238.8071187457699 900 225 900C211.1928812542302 900 200 888.8071187457698 200 875z M300 875C300 861.1928812542302 311.1928812542302 850 325 850C338.8071187457699 850 350 861.1928812542302 350 875C350 888.8071187457698 338.8071187457699 900 325 900C311.1928812542302 900 300 888.8071187457698 300 875z M950 1000H50C22.5 1000 0 977.5 0 950V800V750V50C0 22.5 22.5 0 50 0H950C977.5 0 1000 22.5 1000 50V750V800V950C1000 977.5 977.5 1000 950 1000zM50 950H925C940 950 950 940 950 925V800H75C60 800 50 810 50 825V950zM75 50C60 50 50 60 50 75V750H925C940 750 950 740 950 725L950 50H75z M527.5 600C515 602.5 500 592.5 500 580L450 230C447.5 217.5 457.5 202.5 470 202.5C470 202.5 472.5000000000001 202.5 472.5000000000001 202.5C485.0000000000001 202.5 495 212.4999999999999 497.5000000000001 224.9999999999999L547.5 574.9999999999999C552.5 585 542.5 597.5 527.5 600z M392.5 517.5C382.5 527.5 367.5 527.5 357.5 517.5L267.5 427.5C252.5 412.4999999999999 252.5 390 267.5 374.9999999999999L357.5 284.9999999999999C362.5 279.9999999999999 370 277.4999999999999 375 277.4999999999999S387.5 279.9999999999999 392.5 284.9999999999999C402.5 294.9999999999999 402.5 309.9999999999999 392.5 319.9999999999999L310 400L392.5 482.5C402.5000000000001 492.5 402.5000000000001 507.5 392.5 517.5z M642.5 517.5C632.5 527.5 617.5 527.5 607.5 517.5S597.5 492.5 607.5 482.5L690 400L607.5 317.5C597.5 307.5 597.5 292.5 607.5 282.5C612.5 277.5 620 275 625 275S637.5 277.5 642.5 282.5L732.5 372.5C747.5 387.5000000000001 747.5 410 732.5 425.0000000000001L642.5 517.5z"/>
</svg>
