<svg xmlns="http://www.w3.org/2000/svg" width="40" height="40" fill="none" viewBox="0 0 40 40"><g clip-path="url(#clip0)"><path fill="#00112C" d="M34.13 5.85c-7.8-7.8-20.49-7.8-28.28 0-7.8 7.8-7.8 20.49 0 28.28 3.78 3.78 8.8 5.86 14.14 5.86s10.36-2.08 14.14-5.86c3.78-3.78 5.86-8.8 5.86-14.14S37.91 9.63 34.13 5.85zM2.05 20.99h1.99c.22 3.56 1.6 6.9 3.97 9.57L6.6 31.97a17.844 17.844 0 01-4.55-10.98zm27.84 8.9c-2.64 2.64-6.16 4.1-9.9 4.1-3.4 0-6.61-1.22-9.16-3.43l1.73-1.73a5.842 5.842 0 003.48 1.11c1.59 0 3.1-.62 4.24-1.76l.71-.71c.78-.78.78-2.05 0-2.83l-5.66-5.66c-.78-.78-2.05-.78-2.83 0l-.7.72c-1.37 1.37-1.98 3.26-1.69 5.18.14.93.51 1.79 1.04 2.53l-1.73 1.73a13.874 13.874 0 01-3.43-9.16c0-3.74 1.46-7.25 4.1-9.9 2.64-2.64 6.16-4.1 9.9-4.1 3.4 0 6.61 1.22 9.16 3.43l-1.73 1.73c-.74-.53-1.6-.9-2.53-1.04a5.94 5.94 0 00-5.18 1.69l-.71.71c-.78.78-.78 2.05 0 2.83l.62.62-1.33 1.33a.996.996 0 00.71 1.7c.26 0 .51-.1.71-.29l1.33-1.33 1.59 1.59-1.33 1.33a.996.996 0 00.71 1.7c.26 0 .51-.1.71-.29l1.33-1.33.62.62c.39.39.9.58 1.41.58.51 0 1.02-.2 1.41-.58l.71-.71a5.952 5.952 0 001.68-5.18c-.14-.93-.51-1.79-1.04-2.53l1.73-1.73c2.21 2.54 3.43 5.75 3.43 9.16a13.97 13.97 0 01-4.11 9.9zm-16.68-8.78l.71-.71 5.66 5.66-.71.71c-.91.91-2.18 1.32-3.47 1.12-1.66-.25-3.06-1.65-3.31-3.31-.2-1.29.21-2.56 1.12-3.47zm7.19-7.19l.71-.71a3.98 3.98 0 012.83-1.17c.21 0 .42.02.64.05 1.66.25 3.06 1.65 3.31 3.31.2 1.29-.21 2.56-1.12 3.47l-.71.71-5.66-5.66zM30.56 8a15.814 15.814 0 00-9.57-3.97V2.05c3.96.22 7.84 1.73 10.98 4.54L30.56 8zM18.99 4.04c-3.56.22-6.9 1.6-9.57 3.97L8.01 6.59C11.15 3.78 15.04 2.26 19 2.05v1.99h-.01zM8 9.42a15.814 15.814 0 00-3.97 9.57H2.05A17.94 17.94 0 016.59 8L8 9.42zm1.42 22.56c2.67 2.37 6.01 3.75 9.57 3.97v2A17.81 17.81 0 018 33.4l1.42-1.42zm11.57 3.96c3.56-.22 6.9-1.6 9.57-3.97l1.41 1.41a17.81 17.81 0 01-10.99 4.55v-1.99h.01zm10.99-5.38c2.37-2.67 3.75-6.01 3.97-9.57h2a17.81 17.81 0 01-4.55 10.99l-1.42-1.42zm3.96-11.57c-.22-3.56-1.6-6.9-3.97-9.57L33.39 8a17.81 17.81 0 014.55 10.99h-2z"/></g><defs><clipPath id="clip0"><path fill="#f3f6f9" d="M0 0h40v40H0z"/></clipPath></defs></svg>