<svg width="24" height="24" viewBox="0 0 24 24" fill="none" xmlns="http://www.w3.org/2000/svg">
    <path d="M4.5 8C5.32843 8 6 7.32843 6 6.5C6 5.67157 5.32843 5 4.5 5C3.67157 5 3 5.67157 3 6.5C3 7.32843 3.67157 8 4.5 8Z" fill="#00112C"/>
    <path d="M3 2C1.34772 2 0 3.34772 0 5V8C0 9.65228 1.34772 11 3 11H8C9.65228 11 11 9.65228 11 8V5C11 3.34772 9.65228 2 8 2H3ZM2 5C2 4.45228 2.45228 4 3 4H8C8.54772 4 9 4.45228 9 5V8C9 8.54772 8.54772 9 8 9H3C2.45228 9 2 8.54772 2 8V5Z" fill="#00112C"/>
    <path d="M16 2C14.3477 2 13 3.34772 13 5V8C13 9.65228 14.3477 11 16 11H21C22.6523 11 24 9.65228 24 8V5C24 3.34772 22.6523 2 21 2H16ZM15 5C15 4.45228 15.4523 4 16 4H21C21.5477 4 22 4.45228 22 5H15ZM15 7H22V8C22 8.54772 21.5477 9 21 9H16C15.4523 9 15 8.54772 15 8V7Z" fill="#00112C"/>
    <path d="M3 13H8C9.65228 13 11 14.3477 11 16V19C11 20.6523 9.65228 22 8 22H3C1.34772 22 0 20.6523 0 19V16C0 14.3477 1.34772 13 3 13ZM3 15C2.45228 15 2 15.4523 2 16V19C2 19.5477 2.45228 20 3 20V15ZM5 20H8C8.54772 20 9 19.5477 9 19V16C9 15.4523 8.54772 15 8 15H5V20Z" fill="#00112C"/>
    <path d="M21 17.5C21 18.3284 20.3284 19 19.5 19C18.6716 19 18 18.3284 18 17.5C18 16.6716 18.6716 16 19.5 16C20.3284 16 21 16.6716 21 17.5Z" fill="#00112C"/>
    <path d="M16 13C14.3477 13 13 14.3477 13 16V19C13 20.6523 14.3477 22 16 22H21C22.6523 22 24 20.6523 24 19V16C24 14.3477 22.6523 13 21 13H16ZM15 16C15 15.4523 15.4523 15 16 15H21C21.5477 15 22 15.4523 22 16V19C22 19.5477 21.5477 20 21 20H16C15.4523 20 15 19.5477 15 19V16Z" fill="#00112C"/>
</svg>
