<svg width="40" height="40" fill="none" xmlns="http://www.w3.org/2000/svg"><path d="m39.8 36.8-4.65-26.03a1.987 1.987 0 0 0-2.25-1.63l-4.9.71V8c0-1.1-.9-2-2-2h-6c-1.1 0-2 .9-2 2v4h-6V2c0-1.1-.9-2-2-2H2C.9 0 0 .9 0 2v36c0 1.1.9 2 2 2h24c1.1 0 2-.9 2-2V22.29l2.85 15.93c.17.97 1.01 1.65 1.96 1.65.09 0 .19-.01.29-.02l5.02-.72a1.98 1.98 0 0 0 1.34-.81c.31-.43.44-.97.34-1.52ZM20 16h5c.55 0 1 .45 1 1v17h-5c-.55 0-1-.45-1-1V16Zm0-3v-1h5c.55 0 1 .45 1 1v1h-5c-.55 0-1-.45-1-1Zm6-4v1h-6V8h5c.55 0 1 .45 1 1Zm-16 3v22H2V6h7c.55 0 1 .45 1 1v5Zm0-9v1H3c-.55 0-1-.45-1-1V2h7c.55 0 1 .45 1 1ZM2 37v-1h7c.55 0 1 .45 1 1v1H3c-.55 0-1-.45-1-1Zm10 0V14h5c.55 0 1 .45 1 1v23h-5c-.55 0-1-.45-1-1Zm8 0v-1h6v2h-5c-.55 0-1-.45-1-1Zm12.64-.08-4.48-25.08 4.06-.58c.53-.08 1.03.28 1.13.81l4.48 25.08-4.06.58c-.53.08-1.03-.28-1.13-.81Z" fill="#00112C"/><path d="M15 24c-.55 0-1 .45-1 1v10c0 .55.45 1 1 1s1-.45 1-1V25c0-.55-.45-1-1-1ZM35 36a1 1 0 1 0 0-2 1 1 0 0 0 0 2ZM31 15a1 1 0 1 0 0-2 1 1 0 0 0 0 2ZM15 18a1 1 0 1 0 0-2 1 1 0 0 0 0 2ZM15 22a1 1 0 1 0 0-2 1 1 0 0 0 0 2Z" fill="#00112C"/></svg>