<svg xmlns="http://www.w3.org/2000/svg" width="40" height="40" fill="none" viewBox="0 0 40 40"><path fill="#00112C" d="M38 38H7c-.55 0-1-.45-1-1V7h31c.55 0 1 .45 1 1v30zM2 37V9h2v28c0 .55-.45 1-1 1s-1-.45-1-1zM38 5H6c-1.1 0-2 .9-2 2H2C.9 7 0 7.9 0 9v29c0 1.1.9 2 2 2h36c1.1 0 2-.9 2-2V7c0-1.1-.9-2-2-2z"/><path fill="#00112C" d="M19 23h-9c-.55 0-1 .45-1 1s.45 1 1 1h9c.55 0 1-.45 1-1s-.45-1-1-1zM34 11H10c-.55 0-1 .45-1 1s.45 1 1 1h24c.55 0 1-.45 1-1s-.45-1-1-1zM19 18h-9c-.55 0-1 .45-1 1s.45 1 1 1h9c.55 0 1-.45 1-1s-.45-1-1-1zM19 28h-9c-.55 0-1 .45-1 1s.45 1 1 1h9c.55 0 1-.45 1-1s-.45-1-1-1zM19 33h-9c-.55 0-1 .45-1 1s.45 1 1 1h9c.55 0 1-.45 1-1s-.45-1-1-1zM34 23h-9c-.55 0-1 .45-1 1s.45 1 1 1h9c.55 0 1-.45 1-1s-.45-1-1-1zM34 18h-9c-.55 0-1 .45-1 1s.45 1 1 1h9c.55 0 1-.45 1-1s-.45-1-1-1zM34 28h-9c-.55 0-1 .45-1 1s.45 1 1 1h9c.55 0 1-.45 1-1s-.45-1-1-1zM34 33h-9c-.55 0-1 .45-1 1s.45 1 1 1h9c.55 0 1-.45 1-1s-.45-1-1-1z"/></svg>