<svg xmlns="http://www.w3.org/2000/svg" width="40" height="40" fill="none" viewBox="0 0 40 40"><g clip-path="url(#clip0)"><path fill="#00112C" d="M38 14.698c0 2.62-1.14 5.18-3.25 6.73-2.51 1.85-5.74 2.06-8.73.61-2.44-1.18-4.02-3.75-4.02-6.54v-5.5h15c.55 0 1 .45 1 1v3.7zm-14-11.7c0-.55.45-1 1-1s1 .45 1 1v5h-2v-5zm10 0c0-.55.45-1 1-1s1 .45 1 1v5h-2v-5zm4 5v-4.88c0-1.45-.98-2.78-2.4-3.06a3.004 3.004 0 00-3.6 2.94v5h-4v-4.88c0-1.45-.98-2.78-2.4-3.06a3.004 3.004 0 00-3.6 2.94v5c-1.1 0-2 .9-2 2v5.5c0 3.55 2.02 6.83 5.15 8.34 1.26.61 2.56.97 3.85 1.1v.06c-.55 0-1 .45-1 1s.45 1 1 1c-.55 0-1 .45-1 1s.45 1 1 1v.72c0 4.26-3.2 7.98-7.45 8.26-4.66.31-8.55-3.39-8.55-7.98V6.728c0-3.3-2.37-6.25-5.64-6.67A6.502 6.502 0 000 6.498v17.5c0 .55.45 1 1 1s1-.45 1-1v-17.3c0-2.35 1.71-4.45 4.05-4.68A4.509 4.509 0 0111 6.498v23.15c0 5.32 4.01 9.97 9.31 10.33 5.83.39 10.69-4.24 10.69-9.98v-1c.55 0 1-.45 1-1s-.45-1-1-1c.55 0 1-.45 1-1s-.45-1-1-1v-.06c1.61-.16 3.16-.69 4.56-1.62 2.86-1.93 4.44-5.28 4.44-8.72v-4.6c0-1.1-.9-2-2-2z"/></g><defs><clipPath id="clip0"><path fill="#fff" d="M0 0h40v40H0z"/></clipPath></defs></svg>